HIERARCHY
ROOT Hips
{
	OFFSET 0.000000 89.005402 0.000000
	CHANNELS 6 Xposition Yposition Zposition Xrotation Yrotation Zrotation
	JOINT Spine
	{
		OFFSET 0.116900 10.681000 0.373400
		CHANNELS 3 Xrotation Yrotation Zrotation
		JOINT Spine1
		{
			OFFSET 0.000000 13.840401 0.053500
			CHANNELS 3 Xrotation Yrotation Zrotation
			JOINT Spine2
			{
				OFFSET 0.000000 14.712700 -0.366200
				CHANNELS 3 Xrotation Yrotation Zrotation
				JOINT Neck
				{
					OFFSET 0.000000 35.415497 -3.314200
					CHANNELS 3 Xrotation Yrotation Zrotation
					JOINT Head
					{
						OFFSET 0.000000 16.899200 1.218300
						CHANNELS 3 Xrotation Yrotation Zrotation
						JOINT HeadTop_End
						{
							OFFSET 0.000000 22.206207 2.192500
							CHANNELS 3 Xrotation Yrotation Zrotation
							End Site
							{
								OFFSET 0.000000 22.314178 0.000000
							}
						}
					}
				}
				JOINT LeftShoulder
				{
					OFFSET 12.896400 26.716293 -4.548400
					CHANNELS 3 Xrotation Yrotation Zrotation
					JOINT LeftArm
					{
						OFFSET 19.027000 -4.857010 -1.718400
						CHANNELS 3 Xrotation Yrotation Zrotation
						JOINT LeftForeArm
						{
							OFFSET 24.179897 0.000000 0.000000
							CHANNELS 3 Xrotation Yrotation Zrotation
							JOINT LeftHand
							{
								OFFSET 27.156403 0.000000 0.000000
								CHANNELS 3 Xrotation Yrotation Zrotation
								JOINT LeftHandIndex1
								{
									OFFSET 16.441200 0.000000 0.000000
									CHANNELS 3 Xrotation Yrotation Zrotation
									JOINT LeftHandIndex2
									{
										OFFSET 4.821899 0.000000 0.000000
										CHANNELS 3 Xrotation Yrotation Zrotation
										JOINT LeftHandIndex3
										{
											OFFSET 6.386497 0.000000 0.000000
											CHANNELS 3 Xrotation Yrotation Zrotation
											JOINT LeftHandIndex4
											{
												OFFSET 5.188988 0.000000 0.000000
												CHANNELS 3 Xrotation Yrotation Zrotation
												End Site
												{
													OFFSET -0.178703 5.185913 0.000177
												}
											}
										}
									}
								}
								JOINT LeftHandThumb1
								{
									OFFSET 6.534897 -5.032593 5.900300
									CHANNELS 3 Xrotation Yrotation Zrotation
									JOINT LeftHandThumb2
									{
										OFFSET 3.818176 -2.204422 2.204423
										CHANNELS 3 Xrotation Yrotation Zrotation
										JOINT LeftHandThumb3
										{
											OFFSET 3.252098 -1.877594 1.877601
											CHANNELS 3 Xrotation Yrotation Zrotation
											JOINT LeftHandThumb4
											{
												OFFSET 5.251778 -3.032120 3.032117
												CHANNELS 3 Xrotation Yrotation Zrotation
												End Site
												{
													OFFSET 0.000023 6.780014 0.000000
												}
											}
										}
									}
								}
							}
						}
					}
				}
				JOINT RightShoulder
				{
					OFFSET -12.896300 26.716293 -4.548400
					CHANNELS 3 Xrotation Yrotation Zrotation
					JOINT RightArm
					{
						OFFSET -19.027000 -4.857010 -1.718400
						CHANNELS 3 Xrotation Yrotation Zrotation
						JOINT RightForeArm
						{
							OFFSET -24.179897 0.000000 0.000000
							CHANNELS 3 Xrotation Yrotation Zrotation
							JOINT RightHand
							{
								OFFSET -27.156403 0.000000 0.000000
								CHANNELS 3 Xrotation Yrotation Zrotation
								JOINT RightHandThumb1
								{
									OFFSET -6.591202 -4.852203 5.988100
									CHANNELS 3 Xrotation Yrotation Zrotation
									JOINT RightHandThumb2
									{
										OFFSET -3.818176 -2.204422 2.204423
										CHANNELS 3 Xrotation Yrotation Zrotation
										JOINT RightHandThumb3
										{
											OFFSET -3.252098 -1.877594 1.877601
											CHANNELS 3 Xrotation Yrotation Zrotation
											JOINT RightHandThumb4
											{
												OFFSET -5.251778 -3.032120 3.032117
												CHANNELS 3 Xrotation Yrotation Zrotation
												End Site
												{
													OFFSET -0.000023 6.780014 0.000000
												}
											}
										}
									}
								}
								JOINT RightHandIndex1
								{
									OFFSET -16.029404 0.000000 0.000000
									CHANNELS 3 Xrotation Yrotation Zrotation
									JOINT RightHandIndex2
									{
										OFFSET -5.213303 0.000000 0.000000
										CHANNELS 3 Xrotation Yrotation Zrotation
										JOINT RightHandIndex3
										{
											OFFSET -6.386528 0.000000 0.000000
											CHANNELS 3 Xrotation Yrotation Zrotation
											JOINT RightHandIndex4
											{
												OFFSET -5.189026 0.000000 0.000000
												CHANNELS 3 Xrotation Yrotation Zrotation
												End Site
												{
													OFFSET 0.236702 5.183624 0.001972
												}
											}
										}
									}
								}
							}
						}
					}
				}
			}
		}
	}
	JOINT LeftUpLeg
	{
		OFFSET 14.073000 -7.904099 -1.463000
		CHANNELS 3 Xrotation Yrotation Zrotation
		JOINT LeftLeg
		{
			OFFSET -0.109806 -34.073280 4.093200
			CHANNELS 3 Xrotation Yrotation Zrotation
			JOINT LeftFoot
			{
				OFFSET 0.109806 -29.899420 -6.319000
				CHANNELS 3 Xrotation Yrotation Zrotation
				JOINT LeftToeBase
				{
					OFFSET 1.551100 -14.988700 20.535801
					CHANNELS 3 Xrotation Yrotation Zrotation
					JOINT LeftToe_End
					{
						OFFSET 0.221200 0.570800 13.248301
						CHANNELS 3 Xrotation Yrotation Zrotation
						End Site
						{
							OFFSET 0.000000 13.262435 0.000000
						}
					}
				}
			}
		}
	}
	JOINT RightUpLeg
	{
		OFFSET -13.839300 -7.904099 -1.463000
		CHANNELS 3 Xrotation Yrotation Zrotation
		JOINT RightLeg
		{
			OFFSET 0.109694 -34.073219 4.093300
			CHANNELS 3 Xrotation Yrotation Zrotation
			JOINT RightFoot
			{
				OFFSET -0.109694 -29.899384 -6.319200
				CHANNELS 3 Xrotation Yrotation Zrotation
				JOINT RightToeBase
				{
					OFFSET -1.551100 -14.988700 20.535801
					CHANNELS 3 Xrotation Yrotation Zrotation
					JOINT RightToe_End
					{
						OFFSET -0.221200 0.570900 13.248299
						CHANNELS 3 Xrotation Yrotation Zrotation
						End Site
						{
							OFFSET 0.000000 13.262440 0.000000
						}
					}
				}
			}
		}
	}
}
MOTION
Frames: 8
Frame Time: 0.033333
-0.827814 71.954391 2.847314 9.550630 -14.414349 -0.992263 33.077213 8.402943 7.546983 10.734616 0.744709 -4.521338 17.520055 -0.085155 -4.562565 -12.863450 -4.195076 4.022056 -25.152096 8.831093 4.222117 0.000003 -0.000000 0.000001 -79.974945 -44.103003 -18.136331 -37.586473 -16.661178 -43.739609 -0.000003 -45.967163 -0.000000 -128.300432 8.341934 11.007626 -0.212821 3.933713 -36.747135 2.942133 5.078922 -60.144604 0.513672 2.400830 -24.150499 0.000002 0.000000 0.000001 4.709223 9.560369 3.111994 19.473184 -1.474896 7.636915 -4.536178 -9.613098 1.492977 -0.000003 0.000001 -0.000002 -41.176301 -8.605643 -9.942314 -38.561612 33.438608 81.586678 0.000002 106.687514 -0.000015 -21.934191 -11.140410 -31.233413 8.377141 -4.904138 11.022001 21.620194 -18.183891 -18.379211 -0.702873 -49.821206 -32.535142 0.000002 0.000000 0.000002 -0.920029 1.683582 12.434983 0.748110 -2.533459 32.898296 0.615634 -2.316069 29.767829 0.000000 0.000000 0.000002 -64.853001 9.885251 7.259433 100.102597 7.127308 -2.258774 0.700117 8.142177 13.340939 -26.200959 6.884807 -14.546010 -0.000002 0.000000 -0.000000 -42.458894 1.337940 11.800427 65.207352 -3.070386 -4.351112 -32.278354 -18.347223 -0.519489 -6.158551 -0.000002 0.000001 -0.000000 -0.000000 -0.000000 
-0.835365 72.593102 10.665634 9.153718 -15.781816 -0.207994 32.760442 8.111892 7.095890 10.413736 0.976026 -5.273412 17.192146 0.002330 -5.336563 -12.858827 -4.164356 3.848491 -25.168818 8.709861 4.710330 0.000000 0.000000 -0.000000 -79.295846 -43.604399 -16.876045 -37.003807 -17.585388 -45.476926 -0.000007 -43.489997 -0.000005 -128.396041 8.958684 9.123635 -0.224121 3.915890 -36.710040 2.939911 5.077631 -60.119400 0.512699 2.398659 -24.127380 0.000003 -0.000002 -0.000000 4.669167 9.415944 3.139778 19.473184 -1.474895 7.636916 -4.536180 -9.613101 1.492978 0.000000 -0.000000 -0.000001 -41.167599 -8.375592 -9.784724 -36.802668 34.151714 80.729537 -0.000048 105.704896 0.000048 -22.468949 -9.378943 -31.999313 8.377140 -4.904139 11.022003 21.620192 -18.183893 -18.379209 -0.702874 -49.821210 -32.535142 0.000002 0.000001 -0.000002 -0.890038 1.553039 12.409481 0.739986 -2.520907 32.714260 0.608627 -2.303792 29.594079 -0.000000 -0.000001 -0.000000 -69.684889 10.017197 9.521576 95.992988 5.403445 -1.920024 -1.218449 2.925059 10.428957 -16.119281 1.766458 -6.247141 0.000000 -0.000000 -0.000000 -33.429299 4.084436 9.839807 64.433785 -7.138955 -3.753199 -39.113587 -15.560332 0.315390 -9.051623 0.000000 -0.000004 0.000000 0.000001 -0.000000 
-0.828620 73.542740 18.133305 8.975679 -17.415560 0.883269 32.332691 7.764211 6.174034 10.050179 1.208288 -6.242902 16.826712 0.042996 -6.318642 -12.848127 -4.127833 3.639381 -25.167922 8.568264 5.303577 -0.000000 0.000000 0.000000 -78.491113 -42.975984 -15.350229 -36.555087 -18.731264 -47.622251 0.000016 -40.333838 0.000019 -128.601629 9.727196 6.925819 -0.235338 3.898180 -36.673205 2.937694 5.076378 -60.094333 0.511763 2.396514 -24.104366 -0.000007 0.000000 -0.000001 4.599113 9.167579 3.183392 19.473180 -1.474900 7.636916 -4.536183 -9.613099 1.492978 -0.000002 -0.000000 0.000001 -41.122073 -8.070721 -9.489436 -34.871148 34.956075 79.721101 0.000067 104.638239 -0.000060 -23.132080 -7.712776 -32.783607 8.377139 -4.904138 11.022002 21.620194 -18.183893 -18.379211 -0.702878 -49.821200 -32.535142 0.000001 -0.000000 0.000002 -0.848197 1.368759 12.377559 0.731756 -2.508029 32.526443 0.601679 -2.291531 29.420753 -0.000000 -0.000000 0.000001 -69.201154 10.684433 12.145810 87.595906 2.171426 -1.975981 -5.586397 0.051913 6.813614 -3.932735 0.047224 -0.782319 0.000001 0.000000 0.000000 -24.090823 6.864251 6.959528 60.712930 -10.127507 -3.234976 -42.921233 -14.287494 1.681530 -11.636138 0.000008 0.000004 -0.000000 -0.000000 -0.000000 
-0.892096 74.693359 25.530476 9.102913 -19.241746 2.134585 31.803922 7.477587 5.076429 9.619370 1.461664 -7.299422 16.393226 0.088495 -7.387270 -12.824693 -4.088389 3.411091 -25.129285 8.403585 5.992019 -0.000001 0.000000 0.000001 -77.604848 -42.235865 -13.637116 -36.391316 -20.075652 -50.043925 0.000012 -36.641083 0.000010 -128.845904 10.624586 4.464943 -0.246899 3.879862 -36.635161 2.935414 5.075058 -60.068502 0.510749 2.394296 -24.080592 -0.000004 -0.000000 -0.000002 4.541568 8.965342 3.214919 19.473178 -1.474900 7.636916 -4.536182 -9.613093 1.492976 -0.000001 -0.000003 0.000000 -41.025115 -7.711835 -9.031360 -32.919548 35.802974 78.640961 0.000124 103.484319 -0.000140 -23.758864 -6.090087 -33.429623 8.377138 -4.904139 11.022003 21.620194 -18.183891 -18.379213 -0.702874 -49.821200 -32.535138 -0.000000 -0.000002 -0.000001 -0.790305 1.111760 12.335724 0.723280 -2.494693 32.332090 0.594743 -2.279166 29.246498 0.000000 -0.000000 -0.000001 -65.971766 12.221312 14.367805 76.067352 -1.866029 -2.257538 -11.205567 -0.210239 5.309474 -2.902898 0.000002 -0.000002 -0.000000 0.000000 -0.000000 -14.822718 9.115028 3.181810 54.873036 -10.892095 -2.773645 -43.898486 -14.421226 2.856631 -14.368341 0.000009 0.000002 -0.000001 0.000002 0.000000 
-0.991351 75.885605 33.023308 9.477510 -20.996280 3.296390 31.244629 7.320749 4.115630 9.165410 1.720632 -8.285513 15.932743 0.156521 -8.388256 -12.782768 -4.051907 3.201104 -25.039561 8.218254 6.723073 -0.000001 -0.000000 0.000000 -76.745829 -41.471491 -11.941550 -36.701243 -21.562813 -52.516242 -0.000009 -32.645289 -0.000009 -129.081191 11.610893 1.989328 -0.258805 3.860966 -36.595959 2.933057 5.073714 -60.041864 0.509733 2.392006 -24.056135 0.000002 -0.000001 -0.000002 4.526798 8.916148 3.218023 19.473184 -1.474895 7.636916 -4.536183 -9.613096 1.492976 -0.000000 0.000002 -0.000000 -40.872771 -7.354267 -8.433459 -31.196384 36.526885 77.595751 0.000209 102.431596 -0.000225 -24.274011 -4.741862 -33.856151 8.377140 -4.904139 11.022000 21.620194 -18.183893 -18.379209 -0.702871 -49.821203 -32.535142 -0.000003 0.000002 0.000002 -0.716443 0.781639 12.283057 0.714551 -2.480877 32.131177 0.587787 -2.266713 29.071184 0.000000 -0.000000 -0.000001 -62.473452 14.192488 15.506859 63.346808 -5.472880 -2.427825 -17.005856 0.469055 7.558637 -6.493003 -0.000001 0.000000 -0.000001 -0.000000 -0.000000 -4.411293 10.157740 -1.410386 45.448147 -11.197585 -2.326301 -42.678922 -14.753803 4.025951 -19.004240 -0.000005 0.000004 0.000002 0.000001 0.000000 
-1.059160 77.042244 40.768761 9.875812 -22.337000 4.077746 30.799901 7.311525 3.578639 8.803840 1.940719 -9.058420 15.561758 0.233449 -9.176471 -12.723024 -4.025080 3.054985 -24.909994 8.025063 7.409248 -0.000001 0.000000 -0.000000 -76.040660 -40.828750 -10.524317 -37.500170 -23.027827 -54.744646 0.000012 -28.774617 0.000007 -129.214270 12.554764 -0.205761 -0.270024 3.843096 -36.558926 2.930828 5.072426 -60.016701 0.508764 2.389842 -24.032999 -0.000002 -0.000000 -0.000001 4.541146 8.968108 3.207071 19.473182 -1.474897 7.636919 -4.536181 -9.613096 1.492978 -0.000001 0.000002 -0.000001 -40.678903 -7.067114 -7.775668 -29.866775 36.935013 76.681072 -0.000009 101.650987 -0.000022 -24.628218 -3.782237 -33.970243 8.377139 -4.904138 11.022003 21.620192 -18.183891 -18.379209 -0.702879 -49.821206 -32.535142 -0.000000 0.000002 0.000002 -0.639292 0.434756 12.227913 0.705919 -2.467068 31.930977 0.580941 -2.254375 28.897810 -0.000000 -0.000001 0.000000 -59.655275 15.654736 15.732012 51.381454 -8.179471 -2.401013 -20.842911 0.577690 10.826020 -8.975108 -0.000000 0.000000 0.000000 0.000000 -0.000000 7.023165 9.463120 -6.085706 32.862400 -11.844345 -1.899834 -38.293312 -14.975741 4.800239 -26.804729 0.000003 0.000002 -0.000001 0.000000 0.000000 
-1.128032 77.898247 48.701420 10.084559 -23.010764 4.520602 30.634642 7.300334 3.434347 8.644285 2.085358 -9.528656 15.393211 0.302282 -9.658933 -12.655386 -4.012311 3.001952 -24.781216 7.848149 7.962182 -0.000001 0.000000 -0.000000 -75.571795 -40.448944 -9.576414 -38.548693 -24.253472 -56.390598 -0.000004 -25.693264 -0.000007 -129.196525 13.216681 -1.783385 -0.279795 3.827472 -36.526646 2.928881 5.071296 -59.994749 0.507925 2.387964 -24.012785 -0.000001 -0.000002 -0.000005 4.541922 8.968087 3.210865 19.473180 -1.474899 7.636917 -4.536183 -9.613096 1.492977 -0.000000 0.000001 0.000001 -40.470838 -6.893161 -7.157894 -29.015808 36.888936 75.970610 0.000288 101.260751 -0.000336 -24.816913 -3.218063 -33.719828 8.377139 -4.904139 11.022002 21.620189 -18.183893 -18.379209 -0.702872 -49.821200 -32.535145 -0.000000 0.000002 0.000002 -0.585747 0.192644 12.189454 0.697857 -2.454131 31.743376 0.574340 -2.242325 28.728845 0.000000 -0.000000 0.000002 -59.153215 15.184482 16.738762 44.136928 -11.020407 -2.556331 -18.508472 2.176993 6.875335 -9.813090 0.000001 0.000005 -0.000001 -0.000000 -0.000001 11.529887 8.935912 -10.137476 31.773599 -14.019324 -1.513899 -28.249685 -17.235176 10.553555 -43.717210 -0.000003 -0.000007 0.000002 -0.000000 -0.000002 
-0.955131 78.296333 56.610374 10.065254 -23.089390 4.583448 30.754604 7.330660 3.447321 8.727226 2.130501 -9.733350 15.473303 0.329678 -9.864671 -12.597014 -4.015312 3.045870 -24.709944 7.714592 8.312911 0.000000 0.000000 0.000001 -75.373016 -40.420523 -9.181990 -39.588668 -25.128508 -57.193805 0.000007 -23.822585 0.000004 -129.054170 13.557192 -2.514201 -0.289955 3.811223 -36.492966 2.926853 5.070151 -59.971868 0.507055 2.385999 -23.991750 -0.000001 0.000001 0.000000 4.513570 8.863404 3.234049 19.473182 -1.474897 7.636917 -4.536183 -9.613098 1.492979 0.000001 0.000002 0.000000 -40.283547 -6.836844 -6.671416 -28.773087 36.419829 75.595844 0.000213 101.289622 -0.000247 -24.845535 -3.095281 -33.305396 8.377139 -4.904138 11.022003 21.620192 -18.183891 -18.379209 -0.702876 -49.821200 -32.535145 0.000000 -0.000001 -0.000000 -0.586933 0.198079 12.190348 0.690624 -2.442356 31.573676 0.567670 -2.230184 28.558566 0.000000 -0.000000 -0.000001 -57.865315 15.032809 15.630167 41.905106 -11.742505 -2.497585 -15.525706 0.653226 5.239385 -10.241039 0.000000 -0.000003 0.000002 0.000001 0.000000 12.955973 9.229542 -13.372628 34.291624 -14.895411 0.094351 -21.837655 -12.098704 11.660066 -37.034153 -0.000016 -0.000010 0.000000 0.000000 -0.000002 
